<svg data-v-423bf9ae="" xmlns="http://www.w3.org/2000/svg" viewBox="0 0 314 90" class="iconLeftSlogan"><!----><!----><!----><g data-v-423bf9ae="" id="8314586d-d0c2-4a60-9a7c-7dade201e9d1" fill="black" transform="matrix(4.878049083061471,0,0,4.878049083061471,83.19808809911004,-12.682927627589969)"><path d="M3.79 7.34L3.79 7.34L3.79 7.34Q4.09 7.34 4.46 7.22L4.46 7.22L4.46 7.22Q4.83 7.11 5.17 6.88L5.17 6.88L5.17 6.88Q5.50 6.65 5.73 6.28L5.73 6.28L5.73 6.28Q5.96 5.91 5.96 5.38L5.96 5.38L5.96 5.38Q5.96 4.83 5.73 4.44L5.73 4.44L5.73 4.44Q5.50 4.05 5.17 3.81L5.17 3.81L5.17 3.81Q4.83 3.57 4.46 3.46L4.46 3.46L4.46 3.46Q4.09 3.35 3.79 3.35L3.79 3.35L3.79 3.35Q3.53 3.35 3.24 3.39L3.24 3.39L3.24 3.39Q2.95 3.43 2.74 3.49L2.74 3.49L2.74 7.20L2.74 7.20Q2.95 7.25 3.24 7.29L3.24 7.29L3.24 7.29Q3.53 7.34 3.79 7.34ZM5.12 10.21L3.72 7.83L2.74 7.83L2.74 12.10L1.48 12.10L1.48 4.54L1.48 4.54Q1.48 3.91 1.31 3.52L1.31 3.52L1.31 3.52Q1.13 3.14 0.50 3.14L0.50 3.14L0.22 3.14L0.22 2.86L3.86 2.86L3.86 2.86Q4.31 2.86 4.91 2.93L4.91 2.93L4.91 2.93Q5.52 3.01 6.06 3.28L6.06 3.28L6.06 3.28Q6.61 3.54 6.99 4.04L6.99 4.04L6.99 4.04Q7.36 4.54 7.36 5.38L7.36 5.38L7.36 5.38Q7.36 5.98 7.15 6.40L7.15 6.40L7.15 6.40Q6.94 6.82 6.62 7.09L6.62 7.09L6.62 7.09Q6.29 7.36 5.89 7.52L5.89 7.52L5.89 7.52Q5.49 7.67 5.12 7.76L5.12 7.76L6.59 10.21L6.59 10.21Q6.86 10.65 7.09 10.95L7.09 10.95L7.09 10.95Q7.32 11.24 7.55 11.43L7.55 11.43L7.55 11.43Q7.77 11.62 7.99 11.70L7.99 11.70L7.99 11.70Q8.22 11.79 8.48 11.82L8.48 11.82L8.48 12.10L8.48 12.10Q8.37 12.15 8.14 12.19L8.14 12.19L8.14 12.19Q7.91 12.24 7.64 12.24L7.64 12.24L7.64 12.24Q7.28 12.24 6.96 12.14L6.96 12.14L6.96 12.14Q6.65 12.04 6.36 11.80L6.36 11.80L6.36 11.80Q6.06 11.56 5.76 11.17L5.76 11.17L5.76 11.17Q5.46 10.78 5.12 10.21L5.12 10.21ZM8.55 2.86L14.52 2.86L14.52 2.86Q14.88 2.86 15.11 2.95L15.11 2.95L15.11 2.95Q15.34 3.05 15.48 3.21L15.48 3.21L15.48 3.21Q15.61 3.36 15.66 3.56L15.66 3.56L15.66 3.56Q15.71 3.77 15.71 3.98L15.71 3.98L15.71 5.03L15.43 5.03L15.43 5.03Q15.43 4.19 14.97 3.80L14.97 3.80L14.97 3.80Q14.52 3.42 13.68 3.42L13.68 3.42L11.07 3.42L11.07 7.06L14.85 7.06L14.85 7.62L11.07 7.62L11.07 11.54L13.52 11.54L13.52 11.54Q14.48 11.54 15.03 11.19L15.03 11.19L15.03 11.19Q15.58 10.84 15.90 10.00L15.90 10.00L16.18 10.07L15.69 11.40L15.69 11.40Q15.58 11.72 15.32 11.91L15.32 11.91L15.32 11.91Q15.06 12.10 14.64 12.10L14.64 12.10L9.81 12.10L9.81 4.54L9.81 4.54Q9.81 3.91 9.64 3.52L9.64 3.52L9.64 3.52Q9.46 3.14 8.83 3.14L8.83 3.14L8.55 3.14L8.55 2.86ZM23.45 9.74L23.45 9.74L23.45 9.74Q23.45 10.33 23.25 10.81L23.25 10.81L23.25 10.81Q23.04 11.28 22.67 11.63L22.67 11.63L22.67 11.63Q22.29 11.97 21.75 12.15L21.75 12.15L21.75 12.15Q21.21 12.33 20.54 12.33L20.54 12.33L20.54 12.33Q19.96 12.33 19.40 12.21L19.40 12.21L19.40 12.21Q18.83 12.10 18.38 11.87L18.38 11.87L18.38 11.87Q17.92 11.65 17.63 11.33L17.63 11.33L17.63 11.33Q17.35 11.02 17.35 10.63L17.35 10.63L17.35 9.13L17.60 9.13L17.60 9.13Q17.84 10.54 18.53 11.16L18.53 11.16L18.53 11.16Q19.22 11.77 20.41 11.77L20.41 11.77L20.41 11.77Q20.78 11.77 21.11 11.68L21.11 11.68L21.11 11.68Q21.43 11.59 21.69 11.41L21.69 11.41L21.69 11.41Q21.94 11.23 22.09 10.96L22.09 10.96L22.09 10.96Q22.25 10.70 22.25 10.35L22.25 10.35L22.25 10.35Q22.25 9.73 21.86 9.30L21.86 9.30L21.86 9.30Q21.48 8.86 20.71 8.41L20.71 8.41L18.98 7.39L18.98 7.39Q18.09 6.86 17.72 6.31L17.72 6.31L17.72 6.31Q17.35 5.77 17.35 4.98L17.35 4.98L17.35 4.98Q17.35 4.44 17.54 4.00L17.54 4.00L17.54 4.00Q17.74 3.57 18.09 3.26L18.09 3.26L18.09 3.26Q18.45 2.94 18.95 2.77L18.95 2.77L18.95 2.77Q19.45 2.60 20.06 2.60L20.06 2.60L20.06 2.60Q20.58 2.60 21.12 2.72L21.12 2.72L21.12 2.72Q21.66 2.83 22.09 3.04L22.09 3.04L22.09 3.04Q22.53 3.26 22.81 3.58L22.81 3.58L22.81 3.58Q23.09 3.89 23.09 4.28L23.09 4.28L23.09 5.78L22.83 5.78L22.83 5.78Q22.60 4.37 21.92 3.77L21.92 3.77L21.92 3.77Q21.25 3.16 20.06 3.16L20.06 3.16L20.06 3.16Q19.75 3.16 19.46 3.26L19.46 3.26L19.46 3.26Q19.17 3.36 18.94 3.54L18.94 3.54L18.94 3.54Q18.72 3.72 18.58 3.99L18.58 3.99L18.58 3.99Q18.44 4.26 18.44 4.58L18.44 4.58L18.44 4.58Q18.44 4.89 18.54 5.12L18.54 5.12L18.54 5.12Q18.63 5.36 18.83 5.57L18.83 5.57L18.83 5.57Q19.03 5.78 19.32 5.99L19.32 5.99L19.32 5.99Q19.61 6.19 19.99 6.41L19.99 6.41L21.71 7.43L21.71 7.43Q22.16 7.70 22.49 7.95L22.49 7.95L22.49 7.95Q22.82 8.19 23.03 8.46L23.03 8.46L23.03 8.46Q23.24 8.74 23.34 9.04L23.34 9.04L23.34 9.04Q23.45 9.35 23.45 9.74ZM25.54 2.86L32.05 2.86L32.05 3.42L28.90 3.42L28.90 12.10L27.64 12.10L27.64 3.42L26.38 3.42L26.38 3.42Q25.54 3.42 25.08 3.80L25.08 3.80L25.08 3.80Q24.63 4.19 24.63 5.03L24.63 5.03L24.35 5.03L24.35 3.98L24.35 3.98Q24.35 3.77 24.39 3.56L24.39 3.56L24.39 3.56Q24.44 3.36 24.58 3.21L24.58 3.21L24.58 3.21Q24.71 3.05 24.94 2.95L24.94 2.95L24.94 2.95Q25.17 2.86 25.54 2.86L25.54 2.86ZM34.69 7.20L34.69 12.10L33.43 12.10L33.43 7.20L33.43 7.20Q33.43 6.57 33.26 6.18L33.26 6.18L33.26 6.18Q33.08 5.80 32.45 5.80L32.45 5.80L32.17 5.80L32.17 5.52L33.43 5.52L33.43 5.52Q33.80 5.52 34.04 5.58L34.04 5.58L34.04 5.58Q34.29 5.64 34.43 5.83L34.43 5.83L34.43 5.83Q34.58 6.02 34.64 6.35L34.64 6.35L34.64 6.35Q34.69 6.68 34.69 7.20L34.69 7.20ZM34.61 4.05L34.61 4.05L34.61 4.05Q34.61 4.34 34.43 4.51L34.43 4.51L34.43 4.51Q34.26 4.68 33.96 4.68L33.96 4.68L33.96 4.68Q33.64 4.68 33.41 4.41L33.41 4.41L33.41 4.41Q33.18 4.14 33.18 3.78L33.18 3.78L33.18 3.78Q33.18 3.49 33.35 3.32L33.35 3.32L33.35 3.32Q33.53 3.15 33.82 3.15L33.82 3.15L33.82 3.15Q34.15 3.15 34.38 3.42L34.38 3.42L34.38 3.42Q34.61 3.68 34.61 4.05ZM39.31 3.28L39.31 3.28L39.31 3.28Q39.07 3.28 38.87 3.37L38.87 3.37L38.87 3.37Q38.67 3.46 38.51 3.67L38.51 3.67L38.51 3.67Q38.36 3.88 38.28 4.23L38.28 4.23L38.28 4.23Q38.19 4.58 38.19 5.10L38.19 5.10L38.19 5.52L40.15 5.52L40.15 6.08L38.19 6.08L38.19 12.10L36.93 12.10L36.93 6.08L35.95 6.08L35.95 5.52L36.93 5.52L36.93 5.10L36.93 5.10Q36.93 4.37 37.15 3.90L37.15 3.90L37.15 3.90Q37.37 3.43 37.71 3.17L37.71 3.17L37.71 3.17Q38.05 2.91 38.49 2.81L38.49 2.81L38.49 2.81Q38.93 2.72 39.38 2.72L39.38 2.72L39.38 2.72Q40.25 2.72 40.57 2.93L40.57 2.93L40.57 2.93Q40.73 3.04 40.84 3.19L40.84 3.19L40.84 3.19Q40.95 3.35 41.06 3.56L41.06 3.56L40.64 3.91L40.64 3.91Q40.22 3.28 39.31 3.28ZM43.74 13.01L44.02 12.24L41.78 6.78L41.78 6.78Q41.57 6.24 41.17 5.98L41.17 5.98L41.17 5.98Q40.77 5.71 40.24 5.66L40.24 5.66L40.24 5.38L41.43 5.38L41.43 5.38Q42.06 5.38 42.47 5.67L42.47 5.67L42.47 5.67Q42.88 5.96 43.11 6.50L43.11 6.50L44.70 10.37L46.47 5.52L47.17 5.52L44.44 13.01L44.44 13.01Q44.23 13.58 44.00 13.95L44.00 13.95L44.00 13.95Q43.76 14.32 43.51 14.53L43.51 14.53L43.51 14.53Q43.25 14.74 42.94 14.82L42.94 14.82L42.94 14.82Q42.63 14.90 42.27 14.90L42.27 14.90L41.85 14.90L41.85 14.48L41.85 14.48Q42.15 14.48 42.43 14.41L42.43 14.41L42.43 14.41Q42.71 14.35 42.95 14.19L42.95 14.19L42.95 14.19Q43.18 14.03 43.37 13.74L43.37 13.74L43.37 13.74Q43.57 13.45 43.74 13.01L43.74 13.01Z"></path></g><!----><g data-v-423bf9ae="" id="e5843eab-3fa8-4ca8-bba4-80cecf3876a9" transform="matrix(2.8125,0,0,2.8125,-12.426001459360123,0)" stroke="none" fill="black"><path d="M27.377 11.377L16 0 4.623 11.377 16 22.753l11.377-11.376zM16 6.026l5.35 5.35L16 16.727l-5.35-5.35L16 6.026zM27.426 14.969l-5.664 5.664V32h5.664zM10.238 20.633l-5.664-5.664V32h5.664z"></path></g><!----><g data-v-423bf9ae="" id="cae4d684-3ffe-4900-acae-19e5f45350bd" fill="black" transform="matrix(0.7871268131095965,0,0,0.7871268131095965,84.23977015019692,58.347032385910836)"><path d="M5.29 2.21L3.98 2.21L0.04 11.48L1.20 11.48L2.34 8.79L6.93 8.79L8.06 11.48L9.23 11.48ZM2.74 7.83L4.63 3.30L6.52 7.83ZM28.43 7.92L31.65 7.92L33.89 11.48L35.14 11.48L32.70 7.74C33.74 7.50 34.94 6.90 34.94 5.11C34.94 3.35 33.73 2.21 31.82 2.21L27.38 2.21L27.38 11.48L28.43 11.48ZM28.43 3.21L31.70 3.21C33.01 3.21 33.89 3.93 33.89 5.11C33.89 6.55 32.63 6.93 31.64 6.93L28.43 6.93ZM50.57 3.22L50.57 2.21L43.75 2.21L43.75 11.48L50.57 11.48L50.57 10.47L44.80 10.47L44.80 7.35L49.95 7.35L49.95 6.33L44.80 6.33L44.80 3.22ZM59.77 4.65C59.77 4.03 60.13 3.08 62.23 3.08C63.92 3.08 64.71 3.82 64.82 4.75L65.90 4.75C65.81 3.36 64.69 2.10 62.23 2.10C59.91 2.10 58.74 3.15 58.74 4.66C58.74 7.84 65.09 6.69 65.09 8.96C65.09 10.05 64.11 10.60 62.54 10.60C60.93 10.60 59.63 10.05 59.56 8.71L58.46 8.71C58.60 10.37 59.72 11.59 62.47 11.59C64.75 11.59 66.14 10.64 66.14 8.92C66.14 5.68 59.77 6.80 59.77 4.65ZM81.34 2.21L73.82 2.21L73.82 3.22L77.06 3.22L77.06 11.48L78.11 11.48L78.11 3.22L81.34 3.22ZM103.81 2.21L102.49 2.21L98.56 11.48L99.72 11.48L100.86 8.79L105.45 8.79L106.58 11.48L107.74 11.48ZM101.26 7.83L103.15 3.30L105.04 7.83ZM116.97 8.18L120.09 8.18C122.07 8.18 123.28 7.03 123.28 5.19C123.28 3.37 122.07 2.21 120.09 2.21L115.92 2.21L115.92 11.48L116.97 11.48ZM120.02 3.21C121.48 3.21 122.23 3.96 122.23 5.19C122.23 6.44 121.48 7.20 120.02 7.20L116.97 7.20L116.97 3.21ZM132.76 2.21L131.71 2.21L131.71 11.48L132.76 11.48ZM155.99 10.57C153.73 10.57 152.47 8.93 152.47 6.85C152.47 4.76 153.73 3.12 155.99 3.12C157.51 3.12 158.52 3.85 159.00 4.98L160.10 4.98C159.52 3.29 158.00 2.10 155.90 2.10C153.12 2.10 151.42 4.21 151.42 6.85C151.42 9.48 153.12 11.59 155.90 11.59C158.00 11.59 159.52 10.40 160.10 8.71L159.00 8.71C158.52 9.84 157.51 10.57 155.99 10.57ZM168.67 2.21L168.67 11.48L174.78 11.48L174.78 10.47L169.72 10.47L169.72 2.21ZM184.18 2.21L183.13 2.21L183.13 11.48L184.18 11.48ZM200.27 3.22L200.27 2.21L193.45 2.21L193.45 11.48L200.27 11.48L200.27 10.47L194.50 10.47L194.50 7.35L199.65 7.35L199.65 6.33L194.50 6.33L194.50 3.22ZM215.91 2.21L215.91 10.01L210.18 2.21L208.96 2.21L208.96 11.48L210.01 11.48L210.01 3.65L215.74 11.48L216.96 11.48L216.96 2.21ZM232.81 2.21L225.29 2.21L225.29 3.22L228.52 3.22L228.52 11.48L229.57 11.48L229.57 3.22L232.81 3.22Z"></path></g></svg>