<svg data-v-423bf9ae="" xmlns="http://www.w3.org/2000/svg" viewBox="0 0 229.02438956311167 60" class="font"><!----><!----><!----><g data-v-423bf9ae="" id="5e0036df-6f08-4905-aaf8-9647a2132ce0" fill="black" transform="matrix(4.878049083061471,0,0,4.878049083061471,-1.0731673940540247,-12.682927627589969)"><path d="M3.79 7.34L3.79 7.34L3.79 7.34Q4.09 7.34 4.46 7.22L4.46 7.22L4.46 7.22Q4.83 7.11 5.17 6.88L5.17 6.88L5.17 6.88Q5.50 6.65 5.73 6.28L5.73 6.28L5.73 6.28Q5.96 5.91 5.96 5.38L5.96 5.38L5.96 5.38Q5.96 4.83 5.73 4.44L5.73 4.44L5.73 4.44Q5.50 4.05 5.17 3.81L5.17 3.81L5.17 3.81Q4.83 3.57 4.46 3.46L4.46 3.46L4.46 3.46Q4.09 3.35 3.79 3.35L3.79 3.35L3.79 3.35Q3.53 3.35 3.24 3.39L3.24 3.39L3.24 3.39Q2.95 3.43 2.74 3.49L2.74 3.49L2.74 7.20L2.74 7.20Q2.95 7.25 3.24 7.29L3.24 7.29L3.24 7.29Q3.53 7.34 3.79 7.34ZM5.12 10.21L3.72 7.83L2.74 7.83L2.74 12.10L1.48 12.10L1.48 4.54L1.48 4.54Q1.48 3.91 1.31 3.52L1.31 3.52L1.31 3.52Q1.13 3.14 0.50 3.14L0.50 3.14L0.22 3.14L0.22 2.86L3.86 2.86L3.86 2.86Q4.31 2.86 4.91 2.93L4.91 2.93L4.91 2.93Q5.52 3.01 6.06 3.28L6.06 3.28L6.06 3.28Q6.61 3.54 6.99 4.04L6.99 4.04L6.99 4.04Q7.36 4.54 7.36 5.38L7.36 5.38L7.36 5.38Q7.36 5.98 7.15 6.40L7.15 6.40L7.15 6.40Q6.94 6.82 6.62 7.09L6.62 7.09L6.62 7.09Q6.29 7.36 5.89 7.52L5.89 7.52L5.89 7.52Q5.49 7.67 5.12 7.76L5.12 7.76L6.59 10.21L6.59 10.21Q6.86 10.65 7.09 10.95L7.09 10.95L7.09 10.95Q7.32 11.24 7.55 11.43L7.55 11.43L7.55 11.43Q7.77 11.62 7.99 11.70L7.99 11.70L7.99 11.70Q8.22 11.79 8.48 11.82L8.48 11.82L8.48 12.10L8.48 12.10Q8.37 12.15 8.14 12.19L8.14 12.19L8.14 12.19Q7.91 12.24 7.64 12.24L7.64 12.24L7.64 12.24Q7.28 12.24 6.96 12.14L6.96 12.14L6.96 12.14Q6.65 12.04 6.36 11.80L6.36 11.80L6.36 11.80Q6.06 11.56 5.76 11.17L5.76 11.17L5.76 11.17Q5.46 10.78 5.12 10.21L5.12 10.21ZM8.55 2.86L14.52 2.86L14.52 2.86Q14.88 2.86 15.11 2.95L15.11 2.95L15.11 2.95Q15.34 3.05 15.48 3.21L15.48 3.21L15.48 3.21Q15.61 3.36 15.66 3.56L15.66 3.56L15.66 3.56Q15.71 3.77 15.71 3.98L15.71 3.98L15.71 5.03L15.43 5.03L15.43 5.03Q15.43 4.19 14.97 3.80L14.97 3.80L14.97 3.80Q14.52 3.42 13.68 3.42L13.68 3.42L11.07 3.42L11.07 7.06L14.85 7.06L14.85 7.62L11.07 7.62L11.07 11.54L13.52 11.54L13.52 11.54Q14.48 11.54 15.03 11.19L15.03 11.19L15.03 11.19Q15.58 10.84 15.90 10.00L15.90 10.00L16.18 10.07L15.69 11.40L15.69 11.40Q15.58 11.72 15.32 11.91L15.32 11.91L15.32 11.91Q15.06 12.10 14.64 12.10L14.64 12.10L9.81 12.10L9.81 4.54L9.81 4.54Q9.81 3.91 9.64 3.52L9.64 3.52L9.64 3.52Q9.46 3.14 8.83 3.14L8.83 3.14L8.55 3.14L8.55 2.86ZM23.45 9.74L23.45 9.74L23.45 9.74Q23.45 10.33 23.25 10.81L23.25 10.81L23.25 10.81Q23.04 11.28 22.67 11.63L22.67 11.63L22.67 11.63Q22.29 11.97 21.75 12.15L21.75 12.15L21.75 12.15Q21.21 12.33 20.54 12.33L20.54 12.33L20.54 12.33Q19.96 12.33 19.40 12.21L19.40 12.21L19.40 12.21Q18.83 12.10 18.38 11.87L18.38 11.87L18.38 11.87Q17.92 11.65 17.63 11.33L17.63 11.33L17.63 11.33Q17.35 11.02 17.35 10.63L17.35 10.63L17.35 9.13L17.60 9.13L17.60 9.13Q17.84 10.54 18.53 11.16L18.53 11.16L18.53 11.16Q19.22 11.77 20.41 11.77L20.41 11.77L20.41 11.77Q20.78 11.77 21.11 11.68L21.11 11.68L21.11 11.68Q21.43 11.59 21.69 11.41L21.69 11.41L21.69 11.41Q21.94 11.23 22.09 10.96L22.09 10.96L22.09 10.96Q22.25 10.70 22.25 10.35L22.25 10.35L22.25 10.35Q22.25 9.73 21.86 9.30L21.86 9.30L21.86 9.30Q21.48 8.86 20.71 8.41L20.71 8.41L18.98 7.39L18.98 7.39Q18.09 6.86 17.72 6.31L17.72 6.31L17.72 6.31Q17.35 5.77 17.35 4.98L17.35 4.98L17.35 4.98Q17.35 4.44 17.54 4.00L17.54 4.00L17.54 4.00Q17.74 3.57 18.09 3.26L18.09 3.26L18.09 3.26Q18.45 2.94 18.95 2.77L18.95 2.77L18.95 2.77Q19.45 2.60 20.06 2.60L20.06 2.60L20.06 2.60Q20.58 2.60 21.12 2.72L21.12 2.72L21.12 2.72Q21.66 2.83 22.09 3.04L22.09 3.04L22.09 3.04Q22.53 3.26 22.81 3.58L22.81 3.58L22.81 3.58Q23.09 3.89 23.09 4.28L23.09 4.28L23.09 5.78L22.83 5.78L22.83 5.78Q22.60 4.37 21.92 3.77L21.92 3.77L21.92 3.77Q21.25 3.16 20.06 3.16L20.06 3.16L20.06 3.16Q19.75 3.16 19.46 3.26L19.46 3.26L19.46 3.26Q19.17 3.36 18.94 3.54L18.94 3.54L18.94 3.54Q18.72 3.72 18.58 3.99L18.58 3.99L18.58 3.99Q18.44 4.26 18.44 4.58L18.44 4.58L18.44 4.58Q18.44 4.89 18.54 5.12L18.54 5.12L18.54 5.12Q18.63 5.36 18.83 5.57L18.83 5.57L18.83 5.57Q19.03 5.78 19.32 5.99L19.32 5.99L19.32 5.99Q19.61 6.19 19.99 6.41L19.99 6.41L21.71 7.43L21.71 7.43Q22.16 7.70 22.49 7.95L22.49 7.95L22.49 7.95Q22.82 8.19 23.03 8.46L23.03 8.46L23.03 8.46Q23.24 8.74 23.34 9.04L23.34 9.04L23.34 9.04Q23.45 9.35 23.45 9.74ZM25.54 2.86L32.05 2.86L32.05 3.42L28.90 3.42L28.90 12.10L27.64 12.10L27.64 3.42L26.38 3.42L26.38 3.42Q25.54 3.42 25.08 3.80L25.08 3.80L25.08 3.80Q24.63 4.19 24.63 5.03L24.63 5.03L24.35 5.03L24.35 3.98L24.35 3.98Q24.35 3.77 24.39 3.56L24.39 3.56L24.39 3.56Q24.44 3.36 24.58 3.21L24.58 3.21L24.58 3.21Q24.71 3.05 24.94 2.95L24.94 2.95L24.94 2.95Q25.17 2.86 25.54 2.86L25.54 2.86ZM34.69 7.20L34.69 12.10L33.43 12.10L33.43 7.20L33.43 7.20Q33.43 6.57 33.26 6.18L33.26 6.18L33.26 6.18Q33.08 5.80 32.45 5.80L32.45 5.80L32.17 5.80L32.17 5.52L33.43 5.52L33.43 5.52Q33.80 5.52 34.04 5.58L34.04 5.58L34.04 5.58Q34.29 5.64 34.43 5.83L34.43 5.83L34.43 5.83Q34.58 6.02 34.64 6.35L34.64 6.35L34.64 6.35Q34.69 6.68 34.69 7.20L34.69 7.20ZM34.61 4.05L34.61 4.05L34.61 4.05Q34.61 4.34 34.43 4.51L34.43 4.51L34.43 4.51Q34.26 4.68 33.96 4.68L33.96 4.68L33.96 4.68Q33.64 4.68 33.41 4.41L33.41 4.41L33.41 4.41Q33.18 4.14 33.18 3.78L33.18 3.78L33.18 3.78Q33.18 3.49 33.35 3.32L33.35 3.32L33.35 3.32Q33.53 3.15 33.82 3.15L33.82 3.15L33.82 3.15Q34.15 3.15 34.38 3.42L34.38 3.42L34.38 3.42Q34.61 3.68 34.61 4.05ZM39.31 3.28L39.31 3.28L39.31 3.28Q39.07 3.28 38.87 3.37L38.87 3.37L38.87 3.37Q38.67 3.46 38.51 3.67L38.51 3.67L38.51 3.67Q38.36 3.88 38.28 4.23L38.28 4.23L38.28 4.23Q38.19 4.58 38.19 5.10L38.19 5.10L38.19 5.52L40.15 5.52L40.15 6.08L38.19 6.08L38.19 12.10L36.93 12.10L36.93 6.08L35.95 6.08L35.95 5.52L36.93 5.52L36.93 5.10L36.93 5.10Q36.93 4.37 37.15 3.90L37.15 3.90L37.15 3.90Q37.37 3.43 37.71 3.17L37.71 3.17L37.71 3.17Q38.05 2.91 38.49 2.81L38.49 2.81L38.49 2.81Q38.93 2.72 39.38 2.72L39.38 2.72L39.38 2.72Q40.25 2.72 40.57 2.93L40.57 2.93L40.57 2.93Q40.73 3.04 40.84 3.19L40.84 3.19L40.84 3.19Q40.95 3.35 41.06 3.56L41.06 3.56L40.64 3.91L40.64 3.91Q40.22 3.28 39.31 3.28ZM43.74 13.01L44.02 12.24L41.78 6.78L41.78 6.78Q41.57 6.24 41.17 5.98L41.17 5.98L41.17 5.98Q40.77 5.71 40.24 5.66L40.24 5.66L40.24 5.38L41.43 5.38L41.43 5.38Q42.06 5.38 42.47 5.67L42.47 5.67L42.47 5.67Q42.88 5.96 43.11 6.50L43.11 6.50L44.70 10.37L46.47 5.52L47.17 5.52L44.44 13.01L44.44 13.01Q44.23 13.58 44.00 13.95L44.00 13.95L44.00 13.95Q43.76 14.32 43.51 14.53L43.51 14.53L43.51 14.53Q43.25 14.74 42.94 14.82L42.94 14.82L42.94 14.82Q42.63 14.90 42.27 14.90L42.27 14.90L41.85 14.90L41.85 14.48L41.85 14.48Q42.15 14.48 42.43 14.41L42.43 14.41L42.43 14.41Q42.71 14.35 42.95 14.19L42.95 14.19L42.95 14.19Q43.18 14.03 43.37 13.74L43.37 13.74L43.37 13.74Q43.57 13.45 43.74 13.01L43.74 13.01Z"></path></g><!----><!----></svg>